<svg width="30" height="30" viewBox="0 0 30 30" fill="none" xmlns="http://www.w3.org/2000/svg">
<g clip-path="url(#clip0_25_124)">
<path d="M21.9532 20.2854C21.4611 20.2559 20.278 20.3259 19.0932 20.5511C18.4078 19.8574 17.8143 18.9835 17.3741 18.2628C18.7849 14.2062 17.8914 13.0532 16.6887 13.0532C15.7442 13.0532 15.2727 14.05 15.3776 15.1512C15.4307 15.7055 15.9001 16.8703 16.478 17.9767C16.1235 18.9091 15.4909 20.4849 14.8629 21.6253C14.1279 21.8487 13.4974 22.0969 13.0449 22.3063C10.7911 23.3544 10.61 24.7539 11.079 25.347C11.9694 26.4735 13.8666 25.5015 15.7704 22.0969C17.0737 21.7263 18.7884 21.2325 18.943 21.2325C18.9608 21.2325 18.9852 21.2382 19.0135 21.2473C19.9636 22.0851 21.0857 23.0444 22.0093 23.1707C23.3457 23.3544 24.1064 22.3852 24.0537 21.7825C24.0014 21.1794 23.6492 20.3873 21.9532 20.2854ZM13.5165 23.9579C12.9657 24.6128 12.0748 25.2411 11.7604 25.0321C11.4455 24.8227 11.3933 24.22 12.1013 23.5382C12.8089 22.8571 13.9933 22.5036 14.1714 22.4374C14.3817 22.359 14.434 22.4374 14.434 22.5423C14.434 22.6472 14.0669 23.3021 13.5165 23.9579ZM15.9284 15.1507C15.8757 14.4949 16.0063 13.8662 16.5572 13.7878C17.1071 13.7086 17.3697 14.3378 17.1602 15.3598C16.9503 16.383 16.845 17.0637 16.7404 17.1434C16.6356 17.2218 16.5314 16.9591 16.5314 16.9591C16.3212 16.5393 15.9806 15.8056 15.9284 15.1507ZM16.1383 21.3104C16.4261 20.8379 17.1603 18.9255 17.1603 18.9255C17.3175 19.2142 18.5489 20.6808 18.5489 20.6808C18.5489 20.6808 16.6617 21.101 16.1383 21.3104ZM21.8508 22.1482C21.0648 22.0446 19.7285 21.0997 19.7285 21.0997C19.5452 21.0213 21.1929 20.7975 21.8255 20.838C22.6385 20.8907 22.9268 21.2316 22.9268 21.5722C22.9268 21.9131 22.6385 22.2532 21.8508 22.1482Z" fill="black"/>
<path d="M28.6084 6.3082L22.8463 0.545625L22.3006 0H21.5281H9.77693C7.00234 0 4.74508 2.25773 4.74508 5.03326V5.41822H4V11.4377H4.74508V24.9673C4.74508 27.7423 7.0024 30.0001 9.77699 30.0001H24.1212C26.8967 30.0001 29.154 27.7423 29.154 24.9673V7.62627V6.85424L28.6084 6.3082ZM24.1212 28.1363H9.77693C8.02645 28.1363 6.60783 26.7176 6.60783 24.9672V11.4377H15.8252V5.41816H6.60783V5.0332C6.60783 3.28231 8.02645 1.86316 9.77693 1.86316H21.0822V5.43117C21.0822 6.88945 22.2653 8.0717 23.7236 8.0717H27.2911V24.9672C27.2911 26.7177 25.8721 28.1363 24.1212 28.1363ZM6.7385 9.7316V6.94524C6.7385 6.89607 6.77852 6.85594 6.82779 6.85594H7.71303C7.85893 6.85594 7.99346 6.8799 8.11363 6.92695C8.23252 6.97354 8.33699 7.03887 8.42412 7.1216C8.51207 7.20475 8.57957 7.30582 8.62527 7.42166C8.67098 7.53527 8.69453 7.65943 8.69453 7.79045C8.69453 7.92416 8.67098 8.04908 8.6248 8.16147C8.5791 8.27385 8.5116 8.37352 8.42453 8.4576C8.33787 8.54121 8.23293 8.60695 8.11275 8.65266C7.99346 8.69836 7.85893 8.72145 7.71303 8.72145H7.33943V9.73166C7.33943 9.78088 7.29941 9.8209 7.2502 9.8209H6.82785C6.77852 9.8209 6.7385 9.78082 6.7385 9.7316ZM9.46867 9.7316V6.94524C9.46867 6.89607 9.50875 6.85594 9.55797 6.85594H10.5364C10.7223 6.85594 10.8861 6.88688 11.0241 6.94781C11.1639 7.01004 11.2888 7.10895 11.396 7.24131C11.4513 7.31098 11.4953 7.38803 11.527 7.47076C11.5579 7.55133 11.5814 7.63846 11.5967 7.72899C11.6115 7.81869 11.6202 7.91537 11.6232 8.01943C11.6259 8.11869 11.6271 8.22539 11.6271 8.33859C11.6271 8.45133 11.6259 8.55809 11.6232 8.65734C11.6202 8.761 11.6115 8.85809 11.5967 8.9482C11.5814 9.03879 11.5579 9.12545 11.527 9.20596C11.4948 9.28957 11.4508 9.36668 11.3963 9.435C11.2884 9.56871 11.1634 9.66756 11.024 9.72891C10.8873 9.78984 10.7232 9.82078 10.5363 9.82078H9.55791C9.50869 9.8209 9.46867 9.78082 9.46867 9.7316ZM14.1318 8.08483C14.181 8.08483 14.221 8.1249 14.221 8.17412V8.55381C14.221 8.60303 14.181 8.64311 14.1318 8.64311H13.0628V9.73172C13.0628 9.78094 13.0227 9.82096 12.9735 9.82096H12.5511C12.5019 9.82096 12.4619 9.78094 12.4619 9.73172V6.94535C12.4619 6.89619 12.5019 6.85606 12.5511 6.85606H14.1714C14.2206 6.85606 14.2607 6.89613 14.2607 6.94535V7.32504C14.2607 7.37426 14.2206 7.41434 14.1714 7.41434H13.0628V8.08488L14.1318 8.08483Z" fill="black"/>
<path d="M7.98865 8.06855C8.05967 8.00457 8.094 7.91357 8.094 7.79029C8.094 7.66748 8.05961 7.57648 7.98865 7.5125C7.91465 7.44629 7.81709 7.41406 7.68994 7.41406H7.33984V8.16688H7.68994C7.81703 8.16693 7.91465 8.13477 7.98865 8.06855Z" fill="black"/>
<path d="M10.7255 9.22727C10.7917 9.20242 10.8487 9.1624 10.8997 9.10492C10.955 9.04311 10.9898 8.95428 11.0033 8.84061C11.0186 8.71123 11.0259 8.5423 11.0259 8.33852C11.0259 8.13432 11.0186 7.96533 11.0033 7.83643C10.9898 7.7224 10.955 7.63357 10.9001 7.57217C10.8492 7.51463 10.7903 7.47379 10.7259 7.44977C10.6567 7.42322 10.5775 7.41016 10.4891 7.41016H10.0693V9.26641H10.4891C10.577 9.26646 10.6567 9.2534 10.7255 9.22727Z" fill="black"/>
</g>
<defs>
<clipPath id="clip0_25_124">
<rect width="30" height="30" fill="white"/>
</clipPath>
</defs>
</svg>
