<svg width="40" height="40" viewBox="0 0 40 40" fill="none" xmlns="http://www.w3.org/2000/svg">
<path d="M29.3337 10.5333C28.1118 9.30229 26.6575 8.32654 25.0553 7.66272C23.453 6.99891 21.7347 6.66031 20.0003 6.66659C17.6818 6.66886 15.4045 7.28026 13.3965 8.43956C11.3886 9.59886 9.72046 11.2654 8.55923 13.2722C7.39799 15.279 6.78443 17.5558 6.77993 19.8743C6.77544 22.1929 7.38021 24.4719 8.53366 26.4833L6.66699 33.3333L13.667 31.4999C15.5999 32.5753 17.7718 33.1484 19.9837 33.1666C23.4998 33.1668 26.8737 31.7779 29.3707 29.3026C31.8678 26.8274 33.2862 23.4659 33.317 19.9499C33.3053 18.1954 32.9473 16.4605 32.2638 14.8446C31.5803 13.2287 30.5845 11.7636 29.3337 10.5333ZM20.0003 30.8833C18.0298 30.8846 16.0953 30.3549 14.4003 29.3499L14.0003 29.0999L9.85033 30.1999L10.9503 26.1499L10.6837 25.7333C9.26574 23.4444 8.73656 20.7149 9.19636 18.0619C9.65616 15.409 11.073 13.0169 13.1785 11.3386C15.284 9.66041 17.9318 8.81269 20.6205 8.95607C23.3092 9.09944 25.852 10.224 27.767 12.1166C29.8603 14.1636 31.0587 16.9558 31.1003 19.8833C31.074 22.8098 29.8928 25.6074 27.814 27.6676C25.7353 29.7276 22.927 30.8834 20.0003 30.8833ZM26.017 22.6499C25.6837 22.4833 24.067 21.6833 23.767 21.5833C23.467 21.4833 23.2337 21.4166 23.017 21.7499C22.691 22.1968 22.3403 22.6251 21.967 23.0333C21.7837 23.2666 21.5837 23.2833 21.2503 23.0333C19.3498 22.2823 17.7665 20.8989 16.767 19.1166C16.417 18.5333 17.1003 18.5666 17.7337 17.3166C17.7805 17.2264 17.8048 17.1264 17.8048 17.0249C17.8048 16.9234 17.7805 16.8234 17.7337 16.7333C17.7337 16.5666 16.9837 14.9333 16.717 14.2833C16.4503 13.6333 16.1837 13.7333 15.967 13.7166H15.317C15.1486 13.7192 14.9827 13.7577 14.8303 13.8295C14.678 13.9014 14.5428 14.0049 14.4337 14.1333C14.0597 14.4969 13.768 14.9365 13.5783 15.4223C13.3885 15.9082 13.3051 16.4291 13.3337 16.9499C13.4382 18.1968 13.9077 19.3851 14.6837 20.3666C16.104 22.4929 18.0505 24.2154 20.3337 25.3666C21.5312 26.0656 22.9228 26.3579 24.3003 26.1999C24.759 26.1089 25.1935 25.9224 25.5753 25.6524C25.9573 25.3826 26.2782 25.0353 26.517 24.6333C26.7383 24.1426 26.808 23.5971 26.717 23.0666C26.567 22.8999 26.3503 22.8166 26.017 22.6499Z" fill="black"/>
</svg>
